<?xml version="1.0" encoding="utf-8"?>
<!-- Generator: Adobe Illustrator 16.0.0, SVG Export Plug-In . SVG Version: 6.00 Build 0)  -->
<!DOCTYPE svg PUBLIC "-//W3C//DTD SVG 1.1//EN" "http://www.w3.org/Graphics/SVG/1.1/DTD/svg11.dtd">
<svg version="1.1" id="Layer_1" xmlns="http://www.w3.org/2000/svg" xmlns:xlink="http://www.w3.org/1999/xlink" x="0px" y="0px"
	 width="32px" height="32px" viewBox="0 0 32 32" enable-background="new 0 0 18 18" xml:space="preserve">
<path fill-rule="evenodd" clip-rule="evenodd" fill="#FFFFFF" d="M9,0c4.971,0,9,4.029,9,9s-4.029,9-9,9s-9-4.029-9-9S4.029,0,9,0z"
	/>
<path fill-rule="evenodd" clip-rule="evenodd" fill="#32AD4C" d="M9,1C4.582,1,1,4.582,1,9c0,4.418,3.582,8,8,8c4.418,0,8-3.582,8-8
	C17,4.582,13.418,1,9,1z M7,13l-3-3l1-1l2,2l6-5l1,1L7,13z"/>
</svg>
