<?xml version="1.0" encoding="utf-8"?>
<!-- Generator: Adobe Illustrator 16.0.0, SVG Export Plug-In . SVG Version: 6.00 Build 0)  -->
<!DOCTYPE svg PUBLIC "-//W3C//DTD SVG 1.1//EN" "http://www.w3.org/Graphics/SVG/1.1/DTD/svg11.dtd">
<svg version="1.1" id="Layer_1" xmlns="http://www.w3.org/2000/svg" xmlns:xlink="http://www.w3.org/1999/xlink" x="0px" y="0px"
	 width="18px" height="18px" viewBox="0 0 18 18" enable-background="new 0 0 18 18" xml:space="preserve">
<path fill-rule="evenodd" clip-rule="evenodd" fill="#FFFFFF" d="M9,0c4.971,0,9,4.029,9,9s-4.029,9-9,9s-9-4.029-9-9S4.029,0,9,0z"
	/>
<circle fill="#B73030" cx="9" cy="9" r="8"/>
<path fill="#FFFFFF" d="M9,4C6.237,4,4,6.238,4,9c0,2.763,2.237,5,5,5s5-2.237,5-5C14,6.238,11.763,4,9,4z M9,12.604
	c-1.991,0-3.604-1.613-3.604-3.604c0-0.756,0.237-1.454,0.634-2.032l5.002,5.002C10.454,12.367,9.756,12.604,9,12.604z
	 M11.97,11.032L6.967,6.03C7.546,5.633,8.244,5.396,9,5.396c1.991,0,3.604,1.613,3.604,3.604
	C12.604,9.756,12.367,10.454,11.97,11.032z"/>
</svg>
